<?xml version="1.0" encoding="iso-8859-1"?>
<!-- Generator: Adobe Illustrator 19.0.0, SVG Export Plug-In . SVG Version: 6.00 Build 0)  -->
<svg version="1.1" id="Capa_1" xmlns="http://www.w3.org/2000/svg" xmlns:xlink="http://www.w3.org/1999/xlink" x="0px" y="0px"
	 viewBox="0 0 512.002 512.002" style="enable-background:new 0 0 512.002 512.002;" xml:space="preserve">
<path style="fill:#FFE360;" d="M263.485,306.689h-83.51l-69.241,80.84c-1.798,2.099-0.306,5.341,2.458,5.341h68.647L94.191,506.754
	c-2.289,2.974,1.472,6.807,4.489,4.575l219.613-162.495h-90.907L263.485,306.689z"/>
<path style="fill:#FFC55E;" d="M213.753,306.689h-33.778l-69.241,80.84c-1.798,2.099-0.306,5.341,2.458,5.341h68.647l-87.65,113.889
	c-2.289,2.974,1.472,6.807,4.489,4.575l63.473-46.96l68.81-89.417h-75.679L213.753,306.689z"/>
<path style="fill:#FF5E5E;" d="M459.119,170.607c0,153.816-204.952,286.266-204.952,286.266s-60.541-39.131-115.818-99.553
	c-46.433-50.736-89.134-116.508-89.134-186.713c0-60.702,49.205-109.918,109.907-109.918c32.185,0,61.123,13.838,81.206,35.884
	c5.253,5.749,9.901,12.069,13.838,18.843c19.037-32.724,54.457-54.727,95.044-54.727c8.79,0,17.344,1.035,25.541,2.988
	c24.279,5.77,45.419,19.609,60.476,38.505C450.189,120.95,459.119,144.743,459.119,170.607z"/>
<g>
	<path style="fill:#F74242;" d="M422.814,139.943L309.898,271.778c-2.459,2.869-6.051,4.53-9.837,4.53H193.228
		c-11.055,0-17.02-12.975-9.837-21.367l46.368-54.134h-94.872c-12.587,0-17.764-16.146-7.529-23.47l112.97-80.764
		c5.253,5.749,9.901,12.069,13.838,18.843c19.037-32.724,54.457-54.727,95.044-54.727c8.79,0,17.344,1.035,25.541,2.988
		l-39.886,54.91h78.111C424.044,118.588,430.009,131.552,422.814,139.943z"/>
	<path style="fill:#F74242;" d="M459.119,170.607c0,153.816-204.952,286.266-204.952,286.266s-60.541-39.131-115.818-99.553
		c233.674-4.045,285.737-167.967,296.879-255.138C450.189,120.95,459.119,144.743,459.119,170.607z"/>
</g>
<path style="fill:#FFE360;" d="M309.47,131.527h96.481c2.764,0,4.255,3.241,2.457,5.341L300.063,263.361H193.226l64.66-75.496
	H144.98c-3.147,0-4.442-4.038-1.882-5.868L396.766,0.634c2.986-2.135,6.657,1.564,4.5,4.534l-21.561,29.678L309.47,131.527z"/>
<path style="fill:#FFC55E;" d="M379.705,34.846L197.736,164.947h122.995l-84.294,98.414h-43.211l64.66-75.496H144.98
	c-3.147,0-4.442-4.038-1.882-5.868L396.766,0.634c2.986-2.135,6.657,1.564,4.5,4.534L379.705,34.846z"/>
<path style="fill:#FF5E5E;" d="M324.34,272.425l-78.628,65.081l-72.793-0.69V233.359h82.932
	C285.004,233.359,310.491,249.042,324.34,272.425z"/>
<path style="fill:#F74242;" d="M285.707,296.067c-4.468,0-8.139-3.622-8.139-8.089c0-4.468,3.572-8.089,8.039-8.089h0.1
	c4.468,0,8.089,3.622,8.089,8.089C293.796,292.445,290.174,296.067,285.707,296.067z"/>
<path style="fill:#FF5E5E;" d="M291.2,350.747c-0.015,0-0.029,0-0.043,0c-4.468-0.024-8.121-3.664-8.097-8.132
	c0.023-4.453,3.591-8.047,8.038-8.047c0.015,0,0.029,0,0.043,0l0.101,0.001c4.468,0.024,8.07,3.664,8.047,8.131
	C299.265,347.153,295.648,350.747,291.2,350.747z"/>
<path style="fill:#F74242;" d="M307.222,305.063c-0.015,0-0.029,0-0.044,0c-4.468-0.024-8.12-3.664-8.097-8.132
	c0.024-4.453,3.591-8.047,8.038-8.047c0.015,0,0.029,0,0.044,0l0.1,0.001c4.468,0.024,8.07,3.664,8.047,8.132
	C315.286,301.469,311.669,305.063,307.222,305.063z"/>
<g>
	<path style="fill:#FFE360;" d="M260.954,19.721c-0.014,0-0.028,0-0.042,0c-4.468-0.023-8.071-3.663-8.048-8.13l0.014-2.807
		c0.023-4.453,3.64-8.048,8.088-8.048c0.014,0,0.028,0,0.042,0c4.468,0.023,8.071,3.663,8.048,8.13l-0.014,2.807
		C269.02,16.126,265.402,19.721,260.954,19.721z"/>
	<path style="fill:#FFE360;" d="M260.859,50.334c-0.014,0-0.028,0-0.042,0c-4.468-0.023-8.071-3.663-8.048-8.13l0.014-2.807
		c0.023-4.453,3.64-8.048,8.088-8.048c0.014,0,0.028,0,0.042,0c4.468,0.023,8.071,3.663,8.048,8.13l-0.014,2.807
		C268.925,46.739,265.307,50.334,260.859,50.334z"/>
	<path style="fill:#FFE360;" d="M277.623,33.679c-0.015,0-0.029,0-0.044,0l-2.807-0.015c-4.468-0.024-8.07-3.664-8.047-8.132
		c0.024-4.467,3.689-8.047,8.132-8.047l2.807,0.015c4.468,0.024,8.07,3.664,8.047,8.132
		C285.688,30.085,282.07,33.679,277.623,33.679z"/>
	<path style="fill:#FFE360;" d="M247.011,33.584c-0.015,0-0.029,0-0.044,0l-2.807-0.015c-4.468-0.024-8.07-3.664-8.047-8.132
		c0.024-4.453,3.641-8.047,8.088-8.047c0.015,0,0.029,0,0.044,0l2.807,0.015c4.468,0.024,8.07,3.664,8.047,8.132
		C255.075,29.99,251.458,33.584,247.011,33.584z"/>
	<path style="fill:#FFE360;" d="M438.03,33.601c-0.014,0-0.028,0-0.042,0c-4.468-0.023-8.071-3.663-8.048-8.13l0.014-2.807
		c0.023-4.453,3.64-8.048,8.088-8.048c0.014,0,0.028,0,0.042,0c4.468,0.023,8.071,3.663,8.048,8.13l-0.014,2.807
		C446.096,30.006,442.478,33.601,438.03,33.601z"/>
	<path style="fill:#FFE360;" d="M437.935,64.213c-0.014,0-0.028,0-0.042,0c-4.468-0.023-8.071-3.663-8.048-8.13l0.014-2.807
		c0.023-4.453,3.64-8.048,8.088-8.048c0.014,0,0.028,0,0.042,0c4.468,0.023,8.071,3.663,8.048,8.13l-0.014,2.807
		C446.001,60.619,442.383,64.213,437.935,64.213z"/>
	<path style="fill:#FFE360;" d="M454.699,47.559c-0.014,0-0.028,0-0.042,0l-2.807-0.014c-4.468-0.023-8.071-3.663-8.048-8.13
		c0.023-4.453,3.64-8.048,8.088-8.048c0.014,0,0.028,0,0.042,0l2.807,0.014c4.468,0.023,8.071,3.663,8.048,8.13
		C462.765,43.964,459.147,47.559,454.699,47.559z"/>
	<path style="fill:#FFE360;" d="M424.087,47.463c-0.014,0-0.028,0-0.042,0l-2.807-0.014c-4.468-0.023-8.071-3.663-8.048-8.13
		c0.023-4.453,3.64-8.048,8.088-8.048c0.014,0,0.028,0,0.042,0l2.807,0.014c4.468,0.023,8.071,3.663,8.048,8.13
		C432.152,43.868,428.535,47.463,424.087,47.463z"/>
	<path style="fill:#FFE360;" d="M214.091,474.094c-0.015,0-0.029,0-0.044,0c-4.468-0.024-8.07-3.664-8.047-8.132l0.015-2.807
		c0.024-4.453,3.641-8.047,8.088-8.047c0.015,0,0.029,0,0.044,0c4.468,0.024,8.07,3.664,8.047,8.132l-0.015,2.807
		C222.156,470.501,218.538,474.094,214.091,474.094z"/>
	<path style="fill:#FFE360;" d="M213.997,504.707c-0.014,0-0.028,0-0.042,0c-4.468-0.023-8.071-3.663-8.048-8.13l0.014-2.806
		c0.023-4.453,3.64-8.048,8.088-8.048c0.014,0,0.028,0,0.042,0c4.468,0.023,8.071,3.663,8.048,8.13l-0.014,2.807
		C222.062,501.112,218.445,504.707,213.997,504.707z"/>
	<path style="fill:#FFE360;" d="M230.761,488.052c-0.014,0-0.028,0-0.042,0l-2.807-0.014c-4.468-0.023-8.071-3.663-8.048-8.13
		c0.023-4.468,3.684-8.032,8.13-8.048l2.807,0.014c4.468,0.023,8.071,3.663,8.048,8.13
		C238.827,484.457,235.209,488.052,230.761,488.052z"/>
	<path style="fill:#FFE360;" d="M200.148,487.957c-0.014,0-0.028,0-0.042,0l-2.807-0.014c-4.468-0.023-8.071-3.663-8.048-8.13
		c0.023-4.453,3.64-8.048,8.088-8.048c0.014,0,0.028,0,0.042,0l2.807,0.014c4.468,0.023,8.071,3.663,8.048,8.13
		C208.214,484.362,204.596,487.957,200.148,487.957z"/>
</g>
<g>
</g>
<g>
</g>
<g>
</g>
<g>
</g>
<g>
</g>
<g>
</g>
<g>
</g>
<g>
</g>
<g>
</g>
<g>
</g>
<g>
</g>
<g>
</g>
<g>
</g>
<g>
</g>
<g>
</g>
</svg>
